<svg id="visual" viewBox="0 0 900 600" width="900" height="600" xmlns="http://www.w3.org/2000/svg" xmlns:xlink="http://www.w3.org/1999/xlink" version="1.1"><g transform="translate(441.47150918874416 293.60341004288324)"><path d="M93.5 -113.2C119.2 -89.8 136.9 -58.5 148.1 -22.1C159.4 14.3 164.1 55.9 146.4 82.5C128.6 109.1 88.4 120.6 47.4 139.6C6.4 158.6 -35.3 185 -63.5 174.6C-91.7 164.3 -106.5 117.1 -117.8 77.7C-129.1 38.2 -136.9 6.3 -140 -33.1C-143 -72.4 -141.2 -119.3 -117.1 -143.1C-93 -166.8 -46.5 -167.4 -6.3 -159.9C33.9 -152.3 67.7 -136.7 93.5 -113.2" fill="#6600FF"></path></g></svg>