<svg id="visual" viewBox="0 0 900 600" width="900" height="600" xmlns="http://www.w3.org/2000/svg" xmlns:xlink="http://www.w3.org/1999/xlink" version="1.1"><g transform="translate(449.0506414413112 310.9586274462149)"><path d="M101.9 -122.9C137.3 -91.7 175 -64.6 187.1 -28.2C199.3 8.2 185.8 53.8 162.9 94.5C140 135.2 107.6 171 70.9 176.4C34.1 181.9 -7 157 -50.3 140.3C-93.6 123.6 -139 115.1 -164.1 87.2C-189.3 59.3 -194.1 12.1 -186.5 -33.2C-178.9 -78.5 -158.9 -122 -125.7 -153.7C-92.6 -185.3 -46.3 -205.2 -6.5 -197.4C33.2 -189.6 66.4 -154.2 101.9 -122.9" fill="#6600FF"></path></g></svg>