<svg id="visual" viewBox="0 0 1600 900" width="1600" height="900" xmlns="http://www.w3.org/2000/svg" xmlns:xlink="http://www.w3.org/1999/xlink" version="1.1"><path d="M0 619L38.2 609.3C76.3 599.7 152.7 580.3 228.8 579.8C305 579.3 381 597.7 457.2 607.2C533.3 616.7 609.7 617.3 685.8 603.5C762 589.7 838 561.3 914.2 564.5C990.3 567.7 1066.7 602.3 1142.8 610.7C1219 619 1295 601 1371.2 602C1447.3 603 1523.7 623 1561.8 633L1600 643L1600 901L1561.8 901C1523.7 901 1447.3 901 1371.2 901C1295 901 1219 901 1142.8 901C1066.7 901 990.3 901 914.2 901C838 901 762 901 685.8 901C609.7 901 533.3 901 457.2 901C381 901 305 901 228.8 901C152.7 901 76.3 901 38.2 901L0 901Z" fill="#715df2"></path><path d="M0 615L38.2 628.3C76.3 641.7 152.7 668.3 228.8 678.3C305 688.3 381 681.7 457.2 679.7C533.3 677.7 609.7 680.3 685.8 673.7C762 667 838 651 914.2 648.7C990.3 646.3 1066.7 657.7 1142.8 654C1219 650.3 1295 631.7 1371.2 637.3C1447.3 643 1523.7 673 1561.8 688L1600 703L1600 901L1561.8 901C1523.7 901 1447.3 901 1371.2 901C1295 901 1219 901 1142.8 901C1066.7 901 990.3 901 914.2 901C838 901 762 901 685.8 901C609.7 901 533.3 901 457.2 901C381 901 305 901 228.8 901C152.7 901 76.3 901 38.2 901L0 901Z" fill="#6940fa"></path><path d="M0 680L38.2 688.5C76.3 697 152.7 714 228.8 720.8C305 727.7 381 724.3 457.2 714.8C533.3 705.3 609.7 689.7 685.8 692C762 694.3 838 714.7 914.2 720.5C990.3 726.3 1066.7 717.7 1142.8 719C1219 720.3 1295 731.7 1371.2 725.3C1447.3 719 1523.7 695 1561.8 683L1600 671L1600 901L1561.8 901C1523.7 901 1447.3 901 1371.2 901C1295 901 1219 901 1142.8 901C1066.7 901 990.3 901 914.2 901C838 901 762 901 685.8 901C609.7 901 533.3 901 457.2 901C381 901 305 901 228.8 901C152.7 901 76.3 901 38.2 901L0 901Z" fill="#6600ff"></path><path d="M0 749L38.2 750C76.3 751 152.7 753 228.8 751.2C305 749.3 381 743.7 457.2 747.7C533.3 751.7 609.7 765.3 685.8 763.5C762 761.7 838 744.3 914.2 734C990.3 723.7 1066.7 720.3 1142.8 719.2C1219 718 1295 719 1371.2 716.2C1447.3 713.3 1523.7 706.7 1561.8 703.3L1600 700L1600 901L1561.8 901C1523.7 901 1447.3 901 1371.2 901C1295 901 1219 901 1142.8 901C1066.7 901 990.3 901 914.2 901C838 901 762 901 685.8 901C609.7 901 533.3 901 457.2 901C381 901 305 901 228.8 901C152.7 901 76.3 901 38.2 901L0 901Z" fill="#6600ff"></path><path d="M0 794L38.2 797.2C76.3 800.3 152.7 806.7 228.8 807.5C305 808.3 381 803.7 457.2 798.7C533.3 793.7 609.7 788.3 685.8 787C762 785.7 838 788.3 914.2 782.8C990.3 777.3 1066.7 763.7 1142.8 769C1219 774.3 1295 798.7 1371.2 810.7C1447.3 822.7 1523.7 822.3 1561.8 822.2L1600 822L1600 901L1561.8 901C1523.7 901 1447.3 901 1371.2 901C1295 901 1219 901 1142.8 901C1066.7 901 990.3 901 914.2 901C838 901 762 901 685.8 901C609.7 901 533.3 901 457.2 901C381 901 305 901 228.8 901C152.7 901 76.3 901 38.2 901L0 901Z" fill="#6940fa"></path><path d="M0 825L38.2 826.7C76.3 828.3 152.7 831.7 228.8 830.2C305 828.7 381 822.3 457.2 822.8C533.3 823.3 609.7 830.7 685.8 836.5C762 842.3 838 846.7 914.2 843.2C990.3 839.7 1066.7 828.3 1142.8 820.3C1219 812.3 1295 807.7 1371.2 807.3C1447.3 807 1523.7 811 1561.8 813L1600 815L1600 901L1561.8 901C1523.7 901 1447.3 901 1371.2 901C1295 901 1219 901 1142.8 901C1066.7 901 990.3 901 914.2 901C838 901 762 901 685.8 901C609.7 901 533.3 901 457.2 901C381 901 305 901 228.8 901C152.7 901 76.3 901 38.2 901L0 901Z" fill="#715df2"></path></svg>